<svg zoomAndPan="magnify" preserveAspectRatio="xMidYMid meet" version="1.0" id="svg28" sodipodi:docname="logo1.svg" inkscape:version="1.1.2 (0a00cf5339, 2022-02-04)" xmlns:inkscape="http://www.inkscape.org/namespaces/inkscape" xmlns:sodipodi="http://sodipodi.sourceforge.net/DTD/sodipodi-0.dtd" xmlns="http://www.w3.org/2000/svg" xmlns:svg="http://www.w3.org/2000/svg" viewBox="138 98.37 99.15 85.17">
  <sodipodi:namedview id="namedview30" pagecolor="#ffffff" bordercolor="#666666" borderopacity="1.0" inkscape:pageshadow="2" inkscape:pageopacity="0.0" inkscape:pagecheckerboard="0" showgrid="false" inkscape:zoom="1.742" inkscape:cx="141.50402" inkscape:cy="204.07577" inkscape:window-width="1561" inkscape:window-height="1081" inkscape:window-x="187" inkscape:window-y="66" inkscape:window-maximized="0" inkscape:current-layer="svg28"/>
  <defs id="defs8">
    <clipPath id="id1">
      <path d="M 143.789062 124 L 231.539062 124 L 231.539062 157 L 143.789062 157 Z M 143.789062 124 " clip-rule="nonzero" id="path2"/>
    </clipPath>
    <clipPath id="id2">
      <path d="M 200 101.714844 L 209 101.714844 L 209 110 L 200 110 Z M 200 101.714844 " clip-rule="nonzero" id="path5"/>
    </clipPath>
    <clipPath clipPathUnits="userSpaceOnUse" id="clipPath2469">
      <rect style="opacity:0;stroke-width:0.722039" id="rect2471" width="97.26796" height="85.359634" x="139.04514" y="98.042801"/>
    </clipPath>
    <clipPath clipPathUnits="userSpaceOnUse" id="clipPath2473">
      <rect style="opacity:0;stroke-width:0.722039" id="rect2475" width="97.26796" height="85.359634" x="139.04514" y="98.042801"/>
    </clipPath>
    <clipPath clipPathUnits="userSpaceOnUse" id="clipPath2477">
      <rect style="opacity:0;stroke-width:0.722039" id="rect2479" width="97.26796" height="85.359634" x="139.04514" y="98.042801"/>
    </clipPath>
    <clipPath clipPathUnits="userSpaceOnUse" id="clipPath2481">
      <rect style="opacity:0;stroke-width:0.722039" id="rect2483" width="97.26796" height="85.359634" x="139.04514" y="98.042801"/>
    </clipPath>
    <clipPath clipPathUnits="userSpaceOnUse" id="clipPath2485">
      <rect style="opacity:0;stroke-width:0.722039" id="rect2487" width="97.26796" height="85.359634" x="139.04514" y="98.042801"/>
    </clipPath>
    <clipPath clipPathUnits="userSpaceOnUse" id="clipPath2489">
      <rect style="opacity:0;stroke-width:0.722039" id="rect2491" width="97.26796" height="85.359634" x="139.04514" y="98.042801"/>
    </clipPath>
    <clipPath clipPathUnits="userSpaceOnUse" id="clipPath2493">
      <rect style="opacity:0;stroke-width:0.722039" id="rect2495" width="97.26796" height="85.359634" x="139.04514" y="98.042801"/>
    </clipPath>
    <clipPath clipPathUnits="userSpaceOnUse" id="clipPath2727">
      <rect style="opacity:0.1;stroke-width:0.682687" id="rect2729" width="97.26796" height="85.359642" x="139.04514" y="98.042801"/>
    </clipPath>
    <clipPath clipPathUnits="userSpaceOnUse" id="clipPath2731">
      <rect style="opacity:0.1;stroke-width:0.682687" id="rect2733" width="97.26796" height="85.359642" x="139.04514" y="98.042801"/>
    </clipPath>
    <clipPath clipPathUnits="userSpaceOnUse" id="clipPath2735">
      <rect style="opacity:0.1;stroke-width:0.682687" id="rect2737" width="97.26796" height="85.359642" x="139.04514" y="98.042801"/>
    </clipPath>
    <clipPath clipPathUnits="userSpaceOnUse" id="clipPath2739">
      <rect style="opacity:0.1;stroke-width:0.682687" id="rect2741" width="97.26796" height="85.359642" x="139.04514" y="98.042801"/>
    </clipPath>
    <clipPath clipPathUnits="userSpaceOnUse" id="clipPath2743">
      <rect style="opacity:0.1;stroke-width:0.682687" id="rect2745" width="97.26796" height="85.359642" x="139.04514" y="98.042801"/>
    </clipPath>
    <clipPath clipPathUnits="userSpaceOnUse" id="clipPath2747">
      <rect style="opacity:0.1;stroke-width:0.682687" id="rect2749" width="97.26796" height="85.359642" x="139.04514" y="98.042801"/>
    </clipPath>
    <clipPath clipPathUnits="userSpaceOnUse" id="clipPath2751">
      <rect style="opacity:0.1;stroke-width:0.682687" id="rect2753" width="97.26796" height="85.359642" x="139.04514" y="98.042801"/>
    </clipPath>
  </defs>
  <g clip-path="url(#clipPath2751)" id="g12" inkscape:export-filename="/home/alex/git/emilyworkshop.github.io/logo1.png" inkscape:export-xdpi="96" inkscape:export-ydpi="96" style="opacity:0.88">
    <path fill="#005162" d="m 231.54297,140.84375 c 0,4.49609 -4.72656,8.60937 -13.30469,11.57812 -8.1875,2.83594 -19.04297,4.39454 -30.57422,4.39454 -11.53125,0 -22.38672,-1.5586 -30.57422,-4.39454 -8.57812,-2.96875 -13.30468,-7.08203 -13.30468,-11.57812 0,-4.49609 4.72656,-8.60938 13.30468,-11.57813 8.1875,-2.83593 19.04297,-4.39453 30.57422,-4.39453 11.53125,0 22.38672,1.5586 30.57422,4.39453 8.57813,2.96875 13.30469,7.08204 13.30469,11.57813 z m -85.36328,0 c 0,6.5625 16.66797,13.58594 41.48437,13.58594 24.81641,0 41.48438,-7.02344 41.48438,-13.58594 0,-6.5625 -16.66797,-13.58594 -41.48438,-13.58594 -24.8164,0 -41.48437,7.02344 -41.48437,13.58594 z m 0,0" fill-opacity="1" fill-rule="nonzero" id="path10"/>
  </g>
  <path fill="#005162" d="M 215.753906 168.46875 C 215.753906 172.570312 214.546875 175.554688 212.261719 177.097656 C 208.53125 179.617188 202.46875 178.019531 195.195312 172.59375 C 188.253906 167.421875 180.871094 159.324219 174.40625 149.796875 C 165.257812 136.3125 159.574219 122.296875 159.574219 113.21875 C 159.574219 109.117188 160.78125 106.132812 163.066406 104.589844 C 166.796875 102.070312 172.859375 103.667969 180.132812 109.09375 C 187.074219 114.265625 194.457031 122.363281 200.921875 131.890625 C 210.070312 145.371094 215.753906 159.390625 215.753906 168.46875 Z M 161.964844 113.21875 C 161.964844 121.84375 167.492188 135.347656 176.386719 148.460938 C 190.300781 168.964844 205.476562 178.796875 210.921875 175.121094 C 212.9375 173.757812 213.363281 170.75 213.363281 168.46875 C 213.363281 159.839844 207.835938 146.339844 198.941406 133.226562 C 192.621094 123.914062 185.433594 116.023438 178.703125 111.003906 C 172.398438 106.304688 167.1875 104.6875 164.40625 106.566406 C 162.390625 107.929688 161.964844 110.9375 161.964844 113.21875 Z M 161.964844 113.21875 " fill-opacity="1" fill-rule="nonzero" id="path14" inkscape:export-filename="/home/alex/git/emilyworkshop.github.io/logo1.png" inkscape:export-xdpi="96" inkscape:export-ydpi="96" style="opacity:0.88" clip-path="url(#clipPath2747)"/>
  <path fill="#005162" d="M 215.746094 113.25 C 215.746094 115.78125 215.304688 118.742188 214.414062 122.074219 C 212.175781 130.425781 207.386719 140.269531 200.921875 149.796875 C 197.863281 154.308594 194.589844 158.507812 191.195312 162.285156 C 190.753906 162.777344 189.996094 162.816406 189.503906 162.375 C 189.015625 161.9375 188.972656 161.179688 189.414062 160.691406 C 192.734375 156.996094 195.941406 152.878906 198.941406 148.460938 C 205.257812 139.148438 209.933594 129.558594 212.101562 121.457031 C 214.132812 113.875 213.703125 108.445312 210.921875 106.566406 C 208.140625 104.6875 202.929688 106.304688 196.625 111.003906 C 189.894531 116.023438 182.707031 123.914062 176.390625 133.226562 C 162.476562 153.730469 158.960938 171.441406 164.410156 175.121094 C 166.851562 176.773438 171.148438 175.746094 176.503906 172.226562 C 177.054688 171.863281 177.796875 172.015625 178.160156 172.566406 C 178.523438 173.117188 178.371094 173.859375 177.820312 174.21875 C 171.515625 178.363281 166.414062 179.359375 163.066406 177.097656 C 159.335938 174.578125 158.570312 168.367188 160.917969 159.613281 C 163.152344 151.261719 167.945312 141.417969 174.40625 131.890625 C 180.871094 122.363281 188.253906 114.265625 195.195312 109.09375 C 202.46875 103.667969 208.53125 102.070312 212.261719 104.589844 C 214.574219 106.152344 215.746094 109.128906 215.746094 113.25 Z M 215.746094 113.25 " fill-opacity="1" fill-rule="nonzero" id="path16" inkscape:export-filename="/home/alex/git/emilyworkshop.github.io/logo1.png" inkscape:export-xdpi="96" inkscape:export-ydpi="96" style="opacity:0.88" clip-path="url(#clipPath2743)"/>
  <path fill="#5ce1e6" d="M 187.664062 130.476562 C 188.347656 130.476562 189.023438 130.542969 189.691406 130.675781 C 190.359375 130.808594 191.007812 131.007812 191.640625 131.265625 C 192.269531 131.527344 192.867188 131.847656 193.433594 132.226562 C 194.003906 132.601562 194.527344 133.03125 195.007812 133.515625 C 195.492188 133.996094 195.921875 134.519531 196.300781 135.085938 C 196.679688 135.652344 197 136.246094 197.261719 136.875 C 197.523438 137.503906 197.71875 138.152344 197.851562 138.820312 C 197.984375 139.488281 198.050781 140.164062 198.050781 140.84375 C 198.050781 141.523438 197.984375 142.199219 197.851562 142.867188 C 197.71875 143.53125 197.523438 144.179688 197.261719 144.808594 C 197 145.4375 196.679688 146.035156 196.300781 146.601562 C 195.921875 147.167969 195.492188 147.691406 195.007812 148.171875 C 194.527344 148.652344 194.003906 149.082031 193.433594 149.460938 C 192.867188 149.839844 192.269531 150.160156 191.640625 150.417969 C 191.007812 150.679688 190.359375 150.875 189.691406 151.007812 C 189.023438 151.140625 188.347656 151.207031 187.664062 151.207031 C 186.980469 151.207031 186.304688 151.140625 185.636719 151.007812 C 184.96875 150.875 184.320312 150.679688 183.6875 150.417969 C 183.058594 150.160156 182.460938 149.839844 181.894531 149.460938 C 181.324219 149.082031 180.800781 148.652344 180.320312 148.171875 C 179.835938 147.691406 179.40625 147.167969 179.027344 146.601562 C 178.648438 146.035156 178.328125 145.4375 178.066406 144.808594 C 177.804688 144.179688 177.609375 143.53125 177.476562 142.867188 C 177.34375 142.199219 177.277344 141.523438 177.277344 140.84375 C 177.277344 140.164062 177.34375 139.488281 177.476562 138.820312 C 177.609375 138.152344 177.804688 137.503906 178.066406 136.875 C 178.328125 136.246094 178.648438 135.652344 179.027344 135.085938 C 179.40625 134.519531 179.835938 133.996094 180.320312 133.515625 C 180.800781 133.03125 181.324219 132.601562 181.894531 132.226562 C 182.460938 131.847656 183.058594 131.527344 183.6875 131.265625 C 184.320312 131.007812 184.96875 130.808594 185.636719 130.675781 C 186.304688 130.542969 186.980469 130.476562 187.664062 130.476562 Z M 187.664062 130.476562 " fill-opacity="1" fill-rule="nonzero" id="path18" inkscape:export-filename="/home/alex/git/emilyworkshop.github.io/logo1.png" inkscape:export-xdpi="96" inkscape:export-ydpi="96" style="opacity:0.88" clip-path="url(#clipPath2739)"/>
  <path fill="#5ce1e6" d="M 151.21875 145.039062 C 151.71875 145.039062 152.203125 145.132812 152.664062 145.324219 C 153.128906 145.515625 153.535156 145.789062 153.890625 146.140625 C 154.246094 146.496094 154.519531 146.902344 154.710938 147.363281 C 154.902344 147.828125 154.996094 148.308594 154.996094 148.808594 C 154.996094 149.308594 154.902344 149.789062 154.710938 150.25 C 154.519531 150.710938 154.246094 151.121094 153.890625 151.472656 C 153.535156 151.828125 153.128906 152.097656 152.664062 152.289062 C 152.203125 152.480469 151.71875 152.578125 151.21875 152.578125 C 150.71875 152.578125 150.234375 152.480469 149.773438 152.289062 C 149.308594 152.097656 148.902344 151.828125 148.546875 151.472656 C 148.195312 151.121094 147.921875 150.710938 147.730469 150.25 C 147.535156 149.789062 147.441406 149.308594 147.441406 148.808594 C 147.441406 148.308594 147.535156 147.828125 147.730469 147.363281 C 147.921875 146.902344 148.195312 146.496094 148.546875 146.140625 C 148.902344 145.789062 149.308594 145.515625 149.773438 145.324219 C 150.234375 145.132812 150.71875 145.039062 151.21875 145.039062 Z M 151.21875 145.039062 " fill-opacity="1" fill-rule="nonzero" id="path20" inkscape:export-filename="/home/alex/git/emilyworkshop.github.io/logo1.png" inkscape:export-xdpi="96" inkscape:export-ydpi="96" style="opacity:0.88" clip-path="url(#clipPath2735)"/>
  <g clip-path="url(#clipPath2731)" id="g24" inkscape:export-filename="/home/alex/git/emilyworkshop.github.io/logo1.png" inkscape:export-xdpi="96" inkscape:export-ydpi="96" style="opacity:0.88">
    <path fill="#5ce1e6" d="m 204.35156,101.78125 c 0.5,0 0.98047,0.0977 1.44531,0.28906 0.46094,0.19141 0.8711,0.46485 1.22266,0.81641 0.35547,0.35547 0.62891,0.76172 0.82031,1.22266 0.19141,0.46093 0.28907,0.94531 0.28907,1.4414 0,0.5 -0.0977,0.98438 -0.28907,1.44531 -0.1914,0.46094 -0.46484,0.86719 -0.82031,1.22266 -0.35156,0.35156 -0.76172,0.625 -1.22266,0.81641 -0.46484,0.1914 -0.94531,0.28906 -1.44531,0.28515 -0.5039,0.004 -0.98437,-0.0937 -1.44922,-0.28515 -0.46093,-0.19141 -0.87109,-0.46485 -1.22265,-0.81641 -0.35547,-0.35547 -0.62891,-0.76172 -0.82032,-1.22266 -0.1914,-0.46093 -0.28906,-0.94531 -0.28906,-1.44531 0,-0.49609 0.0977,-0.98047 0.28906,-1.4414 0.19141,-0.46094 0.46485,-0.86719 0.82032,-1.22266 0.35156,-0.35156 0.76172,-0.625 1.22265,-0.81641 0.46485,-0.1914 0.94532,-0.28906 1.44922,-0.28906 z m 0,0" fill-opacity="1" fill-rule="nonzero" id="path22"/>
  </g>
  <path fill="#5ce1e6" d="M 213.722656 164.578125 C 214.222656 164.578125 214.707031 164.671875 215.167969 164.863281 C 215.632812 165.054688 216.039062 165.328125 216.394531 165.679688 C 216.75 166.035156 217.019531 166.441406 217.214844 166.90625 C 217.40625 167.367188 217.5 167.847656 217.5 168.347656 C 217.5 168.847656 217.40625 169.328125 217.214844 169.789062 C 217.019531 170.25 216.75 170.660156 216.394531 171.011719 C 216.039062 171.367188 215.632812 171.636719 215.167969 171.828125 C 214.707031 172.019531 214.222656 172.117188 213.722656 172.117188 C 213.222656 172.117188 212.738281 172.019531 212.277344 171.828125 C 211.8125 171.636719 211.40625 171.367188 211.050781 171.011719 C 210.695312 170.660156 210.425781 170.25 210.230469 169.789062 C 210.039062 169.328125 209.945312 168.847656 209.945312 168.347656 C 209.945312 167.847656 210.039062 167.367188 210.230469 166.90625 C 210.425781 166.441406 210.695312 166.035156 211.050781 165.679688 C 211.40625 165.328125 211.8125 165.054688 212.277344 164.863281 C 212.738281 164.671875 213.222656 164.578125 213.722656 164.578125 Z M 213.722656 164.578125 " fill-opacity="1" fill-rule="nonzero" id="path26" inkscape:export-filename="/home/alex/git/emilyworkshop.github.io/logo1.png" inkscape:export-xdpi="96" inkscape:export-ydpi="96" style="opacity:0.88" clip-path="url(#clipPath2727)"/>
  <rect style="opacity:0;stroke-width:0.75" id="rect2777" width="99.111916" height="85.134636" x="138.02835" y="98.394661"/>
</svg>